<?xml version="1.0" encoding="utf-8"?>
<!-- Generator: Adobe Illustrator 23.1.0, SVG Export Plug-In . SVG Version: 6.00 Build 0)  -->
<svg version="1.1" id="Capa_1" xmlns="http://www.w3.org/2000/svg" xmlns:xlink="http://www.w3.org/1999/xlink" x="0px" y="0px"
	 viewBox="0 0 464 464" style="enable-background:new 0 0 464 464;" xml:space="preserve">
<style type="text/css">
	.st0{fill:#112349;stroke:#54788A;stroke-width:112;stroke-linecap:round;stroke-linejoin:round;stroke-miterlimit:10;}
	.st1{fill:#DCDDDE;stroke:#231F20;stroke-width:10;stroke-linecap:round;stroke-linejoin:round;stroke-miterlimit:10;}
	.st2{fill:#231F20;stroke:#231F20;stroke-width:10;stroke-linecap:round;stroke-linejoin:round;stroke-miterlimit:10;}
	.st3{fill:#231F20;stroke:#C0C2C4;stroke-width:7;stroke-linejoin:round;stroke-miterlimit:10;}
</style>
<path d="M198.7,178.3c-17.1,0-31,13.9-31,31s13.9,31,31,31s31-13.9,31-31S215.8,178.3,198.7,178.3z M198.7,220.3
	c-6.1,0-11-4.9-11-11s4.9-11,11-11s11,4.9,11,11S204.7,220.3,198.7,220.3z"/>
<path d="M265.3,178.3c-17.1,0-31,13.9-31,31s13.9,31,31,31s31-13.9,31-31S282.4,178.3,265.3,178.3z M265.3,220.3
	c-6.1,0-11-4.9-11-11s4.9-11,11-11s11,4.9,11,11S271.4,220.3,265.3,220.3z"/>
<path d="M86.3,178.3c-17.1,0-31,13.9-31,31s13.9,31,31,31s31-13.9,31-31S103.4,178.3,86.3,178.3z M86.3,220.3c-6.1,0-11-4.9-11-11
	s4.9-11,11-11s11,4.9,11,11S92.3,220.3,86.3,220.3z"/>
<path d="M143.4,199.3c-2.6,0-5.2,1.1-7.1,2.9c-1.9,1.9-2.9,4.4-2.9,7.1s1.1,5.2,2.9,7.1c1.9,1.9,4.4,2.9,7.1,2.9s5.2-1.1,7.1-2.9
	c1.9-1.9,2.9-4.4,2.9-7.1c0-2.6-1.1-5.2-2.9-7.1C148.6,200.4,146,199.3,143.4,199.3z"/>
<path class="st0" d="M370.3,209.8c-94.7,0-189.3,0-284,0"/>
<circle class="st1" cx="97.3" cy="209.8" r="26.2"/>
<circle class="st1" cx="167.7" cy="208.8" r="26.2"/>
<circle class="st1" cx="291" cy="211.1" r="35.4"/>
<circle class="st2" cx="370.3" cy="209.8" r="26.2"/>
<path class="st3" d="M89.8,153.8c0,6.9,0,13.7-0.1,20.6"/>
<path class="st3" d="M106.7,153.8c0,6.9,0,13.7-0.1,20.6"/>
<path class="st3" d="M123.5,153.8c0,6.9,0,13.7-0.1,20.6"/>
<path class="st3" d="M141.6,153.8c0,6.9,0,13.7-0.1,20.6"/>
<path class="st3" d="M158.4,153.8c0,6.9,0,13.7-0.1,20.6"/>
<path class="st3" d="M175.3,153.8c0,6.9,0,13.7-0.1,20.6"/>
<path class="st3" d="M193.9,153.8c0,6.9,0,13.7-0.1,20.6"/>
<path class="st3" d="M210.7,153.8c0,6.9,0,13.7-0.1,20.6"/>
<path class="st3" d="M227.6,153.8c0,6.9,0,13.7-0.1,20.6"/>
<path class="st3" d="M242.7,153.8c0,6.9,0,13.7-0.1,20.6"/>
<path class="st3" d="M259.5,153.8c0,6.9,0,13.7-0.1,20.6"/>
<path class="st3" d="M276.3,153.8c0,5.7,0,11.3-0.1,17"/>
<path class="st3" d="M291.1,154.1c0,5.3,0,10.6-0.1,15.9"/>
<path class="st3" d="M307.9,153.8c0,5.7,0,11.3-0.1,17"/>
<path class="st3" d="M324.7,153.8c0,6.9,0,13.7-0.1,20.6"/>
<path class="st3" d="M344.2,153.8c0,6.9,0,13.7-0.1,20.6"/>
<path class="st3" d="M361,153.8c0,6.9,0,13.7-0.1,20.6"/>
</svg>
